<?xml version="1.0" encoding="UTF-8"?>
<svg width="512" height="512" viewBox="0 0 24 24" fill="none" xmlns="http://www.w3.org/2000/svg">
  <defs>
    <linearGradient id="gradient" x1="0%" y1="0%" x2="100%" y2="100%">
      <stop offset="0%" style="stop-color:#6366f1"/>
      <stop offset="100%" style="stop-color:#a855f7"/>
    </linearGradient>
  </defs>
  <path d="M20 8h-2V7a3 3 0 0 0-3-3H9a3 3 0 0 0-3 3v1H4a2 2 0 0 0-2 2v8a2 2 0 0 0 2 2h16a2 2 0 0 0 2-2v-8a2 2 0 0 0-2-2zM8 7a1 1 0 0 1 1-1h6a1 1 0 0 1 1 1v1H8V7zm12 11H4v-8h16v8z" fill="url(#gradient)"/>
  <path d="M8 14h2v2H8zm3 0h2v2h-2zm3 0h2v2h-2z" fill="url(#gradient)"/>
</svg>